<?xml version="1.0" standalone="no"?>
<!DOCTYPE svg PUBLIC "-//W3C//DTD SVG 20010904//EN"
 "http://www.w3.org/TR/2001/REC-SVG-20010904/DTD/svg10.dtd">
<svg version="1.0" xmlns="http://www.w3.org/2000/svg"
 width="700.000000pt" height="700.000000pt" viewBox="0 0 700.000000 700.000000"
 preserveAspectRatio="xMidYMid meet">
<metadata>
Created by potrace 1.14, written by Peter Selinger 2001-2017
</metadata>
<g transform="translate(0.000000,700.000000) scale(0.100000,-0.100000)"
fill="#000000" stroke="none">
<path d="M4529 6996 c-2 -2 -35 -6 -74 -10 -38 -3 -81 -8 -95 -10 -14 -3 -54
-10 -90 -16 -36 -6 -126 -26 -200 -45 -446 -113 -922 -335 -1400 -655 -130
-87 -421 -301 -456 -334 -6 -6 -29 -24 -50 -41 -56 -44 -208 -174 -308 -264
-72 -65 -488 -481 -531 -531 -16 -20 -57 -67 -91 -105 -49 -56 -161 -193 -257
-315 -110 -138 -342 -486 -437 -655 -93 -165 -202 -383 -260 -520 -42 -100
-129 -333 -145 -390 -11 -38 -8 -31 -28 -94 -26 -84 -76 -325 -91 -441 -13
-98 -15 -445 -3 -495 3 -11 8 -40 12 -65 27 -168 103 -354 203 -496 57 -80
1135 -1164 1229 -1236 83 -63 176 -119 270 -161 80 -36 228 -83 288 -92 17 -3
57 -9 90 -14 59 -9 348 -7 415 3 19 3 58 8 85 11 28 3 77 11 110 17 33 5 74
12 90 15 121 19 391 100 595 180 134 52 460 210 573 277 43 25 79 46 81 46 8
0 259 162 356 228 90 62 369 269 380 281 3 3 41 35 85 71 44 35 82 67 85 70 3
3 39 34 80 70 895 773 1558 1732 1840 2660 36 120 82 319 95 412 27 195 27
492 0 631 -3 15 -7 37 -9 50 -33 167 -119 359 -221 492 -30 39 -312 327 -627
641 -599 597 -624 619 -793 701 -78 38 -196 79 -252 89 -15 2 -34 7 -42 10 -8
2 -30 7 -50 10 -20 3 -47 8 -61 10 -29 6 -385 15 -391 10z m336 -309 c217 -28
462 -152 580 -292 61 -73 84 -110 125 -199 35 -76 76 -203 68 -211 -2 -2 -35
-7 -73 -10 -257 -21 -482 -70 -738 -159 -204 -71 -312 -117 -547 -229 -120
-57 -436 -238 -497 -283 -17 -13 -34 -24 -37 -24 -4 0 -28 -15 -54 -33 -26
-18 -83 -58 -127 -87 -44 -30 -87 -60 -95 -67 -8 -7 -46 -35 -85 -63 -78 -57
-100 -75 -260 -205 -152 -125 -159 -131 -324 -284 -197 -181 -407 -398 -562
-581 -35 -41 -66 -77 -69 -80 -14 -12 -185 -235 -258 -337 -430 -593 -754
-1297 -850 -1848 -11 -60 -20 -117 -20 -125 0 -44 -19 -210 -24 -215 -2 -2
-41 8 -87 21 -237 69 -409 210 -516 422 -40 80 -80 208 -90 287 -4 28 -8 61
-11 75 -5 30 -5 253 0 295 2 17 6 57 10 90 22 183 119 535 206 740 33 79 166
363 175 375 7 8 15 23 18 32 15 41 178 316 272 458 358 540 828 1054 1376
1505 189 155 554 406 789 540 336 193 723 358 988 420 156 37 303 62 422 71
47 4 86 8 88 9 4 3 165 -3 207 -8z m801 -1095 c-4 -44 -9 -91 -11 -103 -2 -13
-6 -44 -9 -69 -21 -162 -106 -476 -169 -622 -8 -18 -29 -69 -47 -113 -57 -137
-217 -453 -261 -517 -11 -14 -19 -28 -19 -31 0 -26 -396 -608 -440 -647 -3 -3
-35 -41 -70 -85 -226 -281 -583 -652 -835 -866 -22 -19 -49 -42 -60 -52 -11
-10 -74 -63 -140 -116 -353 -287 -695 -510 -1045 -683 -426 -211 -806 -322
-1163 -342 l-68 -4 6 61 c28 288 69 463 177 757 54 145 58 156 125 300 362
777 999 1566 1753 2176 495 400 1054 722 1544 890 109 38 343 99 421 110 28 3
59 8 70 11 11 2 47 6 80 9 33 3 61 7 62 8 2 1 26 3 54 5 l51 2 -6 -79z m438
26 c242 -79 424 -251 514 -483 44 -112 53 -152 70 -295 14 -115 2 -348 -23
-470 -3 -14 -8 -38 -11 -55 -14 -81 -90 -350 -117 -415 -5 -14 -11 -29 -12
-35 -4 -16 -80 -203 -110 -270 -97 -217 -277 -539 -419 -750 -66 -98 -215
-307 -225 -315 -3 -3 -26 -31 -49 -63 -68 -91 -189 -235 -321 -382 -139 -153
-496 -500 -656 -635 -27 -23 -61 -52 -75 -64 -14 -11 -77 -62 -140 -112 -378
-299 -790 -551 -1166 -712 -221 -95 -589 -206 -752 -227 -20 -3 -66 -9 -102
-14 -35 -4 -121 -8 -190 -8 -300 -1 -533 76 -712 233 -76 67 -165 199 -209
309 -11 29 -49 164 -46 166 8 3 48 8 137 14 57 3 107 8 110 10 3 1 28 6 55 9
104 14 286 60 450 113 519 170 1041 454 1565 854 385 293 790 675 1095 1033
28 33 55 64 60 70 6 6 58 72 116 146 414 532 702 1051 888 1606 75 224 118
415 136 604 3 36 8 83 10 105 2 22 4 46 4 53 1 16 31 11 125 -20z"/>
</g>
</svg>
